<svg xmlns="http://www.w3.org/2000/svg" width="440" height="150" viewBox="0 0 440 150" role="img" aria-label="Cashlite, smart budgeting">
  <rect x="0.75" y="0.75" width="438.5" height="148.5" rx="14" fill="#FFFFFF" stroke="#D0D7DE"/>
  <text x="24" y="50" fill="#0F172A" font-family="Inter,-apple-system,BlinkMacSystemFont,Segoe UI,Helvetica,Arial,sans-serif" font-size="20" font-weight="700" letter-spacing="-0.4">Cashlite</text>
  <text x="24" y="72" fill="#57606A" font-family="ui-monospace,SFMono-Regular,Menlo,Consolas,monospace" font-size="11.5">smart budgeting</text>
  <rect x="24" y="86" width="40" height="3" rx="1.5" fill="#2563EB"/>
  <rect x="240" y="44" width="176" height="12" rx="6" fill="#EFF2F5"/><rect x="240" y="44" height="12" rx="6" fill="#2563EB">
      <animate attributeName="width" values="14;124;124;14" keyTimes="0;0.4;0.82;1" dur="8s" begin="0.6s" repeatCount="indefinite"/>
    </rect><circle cx="246" cy="76" r="4" fill="#57606A" opacity="0.4"/><rect x="258" y="73" width="90" height="6" rx="3" fill="#57606A" opacity="0.3"/><rect x="378" y="73" width="38" height="6" rx="3" fill="#57606A" opacity="0.18"/><circle cx="246" cy="94" r="4" fill="#57606A" opacity="0.4"/><rect x="258" y="91" width="72" height="6" rx="3" fill="#57606A" opacity="0.3"/><rect x="378" y="91" width="38" height="6" rx="3" fill="#57606A" opacity="0.18"/><circle cx="246" cy="112" r="4" fill="#57606A" opacity="0.4"/><rect x="258" y="109" width="54" height="6" rx="3" fill="#57606A" opacity="0.3"/><rect x="378" y="109" width="38" height="6" rx="3" fill="#57606A" opacity="0.18"/>
</svg>