<svg xmlns="http://www.w3.org/2000/svg" width="1200" height="320" viewBox="0 0 1200 320" role="img" aria-label="Rahmat Mozafari, building Tilbudsroboten">
  <rect width="1200" height="320" fill="#F8FAFC"/>
  <g stroke="#0F172A" stroke-opacity="0.05" stroke-width="1"><line x1="0" y1="0" x2="0" y2="320"/><line x1="40" y1="0" x2="40" y2="320"/><line x1="80" y1="0" x2="80" y2="320"/><line x1="120" y1="0" x2="120" y2="320"/><line x1="160" y1="0" x2="160" y2="320"/><line x1="200" y1="0" x2="200" y2="320"/><line x1="240" y1="0" x2="240" y2="320"/><line x1="280" y1="0" x2="280" y2="320"/><line x1="320" y1="0" x2="320" y2="320"/><line x1="360" y1="0" x2="360" y2="320"/><line x1="400" y1="0" x2="400" y2="320"/><line x1="440" y1="0" x2="440" y2="320"/><line x1="480" y1="0" x2="480" y2="320"/><line x1="520" y1="0" x2="520" y2="320"/><line x1="560" y1="0" x2="560" y2="320"/><line x1="600" y1="0" x2="600" y2="320"/><line x1="640" y1="0" x2="640" y2="320"/><line x1="680" y1="0" x2="680" y2="320"/><line x1="720" y1="0" x2="720" y2="320"/><line x1="760" y1="0" x2="760" y2="320"/><line x1="800" y1="0" x2="800" y2="320"/><line x1="840" y1="0" x2="840" y2="320"/><line x1="880" y1="0" x2="880" y2="320"/><line x1="920" y1="0" x2="920" y2="320"/><line x1="960" y1="0" x2="960" y2="320"/><line x1="1000" y1="0" x2="1000" y2="320"/><line x1="1040" y1="0" x2="1040" y2="320"/><line x1="1080" y1="0" x2="1080" y2="320"/><line x1="1120" y1="0" x2="1120" y2="320"/><line x1="1160" y1="0" x2="1160" y2="320"/><line x1="1200" y1="0" x2="1200" y2="320"/><line x1="0" y1="0" x2="1200" y2="0"/><line x1="0" y1="40" x2="1200" y2="40"/><line x1="0" y1="80" x2="1200" y2="80"/><line x1="0" y1="120" x2="1200" y2="120"/><line x1="0" y1="160" x2="1200" y2="160"/><line x1="0" y1="200" x2="1200" y2="200"/><line x1="0" y1="240" x2="1200" y2="240"/><line x1="0" y1="280" x2="1200" y2="280"/><line x1="0" y1="320" x2="1200" y2="320"/></g>
  <rect x="0" y="0" width="6" height="320" fill="#2563EB"/>
  <text x="72" y="142" fill="#0F172A" font-family="Inter,-apple-system,BlinkMacSystemFont,Segoe UI,Helvetica,Arial,sans-serif" font-size="48" font-weight="700" letter-spacing="-1.4">Rahmat Mozafari</text>
  <text x="74" y="187" fill="#64748B" font-family="ui-monospace,SFMono-Regular,Menlo,Consolas,monospace" font-size="17">building Tilbudsroboten, quotes for Norwegian tradespeople</text>
  <rect x="778" y="192" width="10" height="3" rx="1.5" fill="#2563EB">
      <animate attributeName="opacity" values="1;1;0;0" keyTimes="0;0.5;0.52;1" dur="1.2s" repeatCount="indefinite"/>
    </rect>
  <rect x="74" y="214" width="64" height="4" rx="2" fill="#2563EB"/>
  <circle cx="800" cy="160" r="27" fill="none" stroke="#64748B" stroke-opacity="0.45" stroke-width="2"/><circle cx="800" cy="160" r="5" fill="#64748B" fill-opacity="0.55"/><text x="800" y="218" fill="#64748B" fill-opacity="0.8" font-family="ui-monospace,SFMono-Regular,Menlo,Consolas,monospace" font-size="13" text-anchor="middle">beskriv</text><line x1="832" y1="160" x2="891" y2="160" stroke="#64748B" stroke-opacity="0.4" stroke-width="2"/><path d="M889 155 L897 160 L889 165 Z" fill="#64748B" fill-opacity="0.4"/><circle cx="930" cy="160" r="27" fill="none" stroke="#64748B" stroke-opacity="0.45" stroke-width="2"/><circle cx="930" cy="160" r="5" fill="#64748B" fill-opacity="0.55"/><text x="930" y="218" fill="#64748B" fill-opacity="0.8" font-family="ui-monospace,SFMono-Regular,Menlo,Consolas,monospace" font-size="13" text-anchor="middle">tilbud</text><line x1="962" y1="160" x2="1021" y2="160" stroke="#64748B" stroke-opacity="0.4" stroke-width="2"/><path d="M1019 155 L1027 160 L1019 165 Z" fill="#64748B" fill-opacity="0.4"/><circle cx="1060" cy="160" r="27" fill="none" stroke="#2563EB" stroke-opacity="1" stroke-width="2"/><circle cx="1060" cy="160" r="5" fill="#2563EB" fill-opacity="1"/><text x="1060" y="218" fill="#64748B" fill-opacity="0.8" font-family="ui-monospace,SFMono-Regular,Menlo,Consolas,monospace" font-size="13" text-anchor="middle">signert</text>
  
    <circle r="5" fill="#2563EB">
      <animate attributeName="cx" values="800;800;1060;1060"
               keyTimes="0;0.18;0.62;1" dur="6s" repeatCount="indefinite"/>
      <animate attributeName="cy" values="160" dur="6s" repeatCount="indefinite"/>
      <animate attributeName="opacity" values="0;1;1;0" keyTimes="0;0.18;0.6;0.68" dur="6s" repeatCount="indefinite"/>
    </circle>
    <circle cx="1060" cy="160" r="27" fill="none" stroke="#2563EB" stroke-width="2" opacity="0">
      <animate attributeName="r" values="27;43" keyTimes="0;1" begin="3.7s" dur="1.1s" repeatCount="indefinite"/>
      <animate attributeName="opacity" values="0.7;0" keyTimes="0;1" begin="3.7s" dur="1.1s" repeatCount="indefinite"/>
    </circle>
</svg>